<svg xmlns="http://www.w3.org/2000/svg" xmlns:xlink="http://www.w3.org/1999/xlink" width="0" height="0" style="position:absolute">

    <symbol id="icon-facebook" viewBox="0 0 20 20">
        <path d="M15 4.13h-2.856c-.338 0-.715.443-.715 1.038V7.23H15v2.94h-3.57V19H8.056v-8.83H5V7.23h3.057V5.5c0-2.48 1.722-4.5 4.086-4.5H15v3.13z"/>
    </symbol>

    <symbol id="icon-house" viewBox="0 0 20 20">
        <path d="M18.77 10.3l-8.024-8.03c-.41-.427-1.08-.427-1.49 0L1.23 10.3c-.41.425-.258.774.34.774h1.673v6.168c0 .445.02.81.824.81h3.895v-6.19h4.075v6.19h4.09c.613 0 .63-.364.63-.81v-6.168h1.672c.596 0 .75-.348.34-.774z"/>
    </symbol>

    <symbol id="icon-rss" viewBox="0 0 20 20">
        <path d="M2.002 2.8v2.367c7.086 0 12.83 5.745 12.83 12.83h2.37C17.2 9.605 10.395 2.8 2 2.8zm0 4.736v2.37c4.47 0 8.094 3.622 8.094 8.092h2.367c0-5.777-4.683-10.462-10.46-10.462zm2.27 5.922c-1.253 0-2.27 1.017-2.27 2.27S3.02 18 4.272 18c1.254 0 2.27-1.015 2.27-2.27s-1.016-2.27-2.27-2.27z"/>
    </symbol>

    <symbol id="icon-twitter" viewBox="0 0 20 20">
        <path d="M19.2 4.293c-.678.3-1.405.503-2.17.595.78-.467 1.38-1.207 1.66-2.088-.728.432-1.536.747-2.395.916-.69-.734-1.67-1.192-2.756-1.192-2.086 0-3.776 1.69-3.776 3.774 0 .296.033.584.098.86-3.137-.157-5.92-1.66-7.78-3.944-.326.557-.513 1.206-.513 1.898 0 1.31.666 2.465 1.68 3.142-.62-.02-1.202-.19-1.71-.472v.047c0 1.828 1.3 3.353 3.027 3.7-.316.087-.65.133-.995.133-.243 0-.48-.023-.71-.067.48 1.5 1.875 2.59 3.526 2.62-1.292 1.014-2.92 1.617-4.688 1.617-.305 0-.605-.018-.9-.053 1.67 1.07 3.654 1.696 5.787 1.696 6.943 0 10.74-5.752 10.74-10.74 0-.164-.003-.327-.01-.49.737-.53 1.376-1.196 1.883-1.953z"/>
    </symbol>
</svg>